<?xml version="1.0" standalone="no"?>
<!DOCTYPE svg PUBLIC "-//W3C//DTD SVG 20010904//EN"
 "http://www.w3.org/TR/2001/REC-SVG-20010904/DTD/svg10.dtd">
<svg version="1.0" xmlns="http://www.w3.org/2000/svg"
 width="512.000000pt" height="512.000000pt" viewBox="0 0 512.000000 512.000000"
 preserveAspectRatio="xMidYMid meet">

<g transform="translate(0.000000,512.000000) scale(0.100000,-0.100000)"
fill="#000000" stroke="none">
<path d="M1876 4635 c-73 -30 -147 -100 -184 -175 -24 -50 -27 -68 -30 -192
l-4 -138 -413 0 c-239 0 -424 -4 -439 -10 -35 -13 -60 -56 -59 -98 1 -27 9
-43 32 -64 29 -26 37 -28 121 -28 l90 0 0 -1467 c0 -1253 3 -1478 15 -1538 37
-175 159 -331 317 -404 45 -22 110 -44 142 -50 41 -8 395 -11 1100 -11 854 0
1053 3 1107 14 216 46 398 231 444 451 12 60 15 285 15 1538 l0 1467 89 0 c81
0 92 2 119 25 36 30 45 69 27 112 -26 63 -30 63 -488 63 l-415 0 -4 138 c-4
124 -7 142 -31 193 -36 75 -116 150 -190 177 -57 22 -67 22 -680 22 l-622 0
-59 -25z m1304 -193 c19 -9 45 -32 57 -51 21 -31 23 -46 23 -153 l0 -118 -697
2 -698 3 0 120 c0 108 2 123 22 151 47 65 27 64 673 64 537 0 588 -1 620 -18z
m748 -1999 c-3 -1464 -3 -1489 -23 -1535 -49 -115 -133 -193 -244 -228 -61
-19 -90 -20 -1101 -20 -1011 0 -1040 1 -1101 20 -111 35 -195 113 -244 228
-20 46 -20 71 -23 1535 l-2 1487 1370 0 1370 0 -2 -1487z"/>
<path d="M2507 3579 c-49 -29 -47 20 -47 -1304 0 -1343 -3 -1277 55 -1303 33
-15 57 -15 90 0 58 26 55 -40 55 1303 0 1331 2 1277 -49 1305 -25 13 -81 12
-104 -1z"/>
<path d="M1711 3446 c-52 -29 -50 19 -51 -1149 0 -1171 -2 -1129 49 -1157 25
-13 77 -13 102 0 51 28 49 -13 49 1154 0 820 -3 1091 -12 1111 -22 48 -88 68
-137 41z"/>
<path d="M3311 3446 c-52 -29 -50 19 -51 -1149 0 -1171 -2 -1129 49 -1157 25
-13 77 -13 102 0 51 28 49 -13 49 1154 0 820 -3 1091 -12 1111 -22 48 -88 68
-137 41z"/>
</g>
</svg>
