<?xml version="1.0" standalone="no"?>
<!DOCTYPE svg PUBLIC "-//W3C//DTD SVG 20010904//EN"
 "http://www.w3.org/TR/2001/REC-SVG-20010904/DTD/svg10.dtd">
<svg version="1.0" xmlns="http://www.w3.org/2000/svg"
 width="387.000000pt" height="674.000000pt" viewBox="0 0 387.000000 674.000000"
 preserveAspectRatio="xMidYMid meet">

<g transform="translate(0.000000,674.000000) scale(0.100000,-0.100000)"
fill="#000000" stroke="none">
<path d="M320 6711 c-117 -37 -231 -136 -286 -246 -27 -56 -29 -70 -32 -191
-2 -73 1 -149 7 -171 27 -101 63 -138 1374 -1450 l1282 -1283 -1287 -1287
c-709 -709 -1299 -1305 -1313 -1325 -56 -83 -65 -119 -65 -267 0 -138 0 -139
34 -207 44 -88 94 -146 162 -189 110 -71 241 -96 362 -71 155 32 57 -59 1673
1556 830 830 1491 1499 1512 1530 104 153 103 367 -2 526 -47 71 -2964 2989
-3028 3028 -107 66 -273 86 -393 47z"/>
</g>
</svg>
